<svg xmlns="http://www.w3.org/2000/svg" viewBox="0 0 1000 1250" width="1000" height="1250" preserveAspectRatio="xMidYMid slice"><defs><linearGradient id="g" x1="0" y1="0" x2="1" y2="1"><stop offset="0" stop-color="#F8F4EC"/><stop offset="1" stop-color="#F1EADE"/></linearGradient><filter id="n" x="0" y="0" width="100%" height="100%"><feTurbulence type="fractalNoise" baseFrequency="0.9" numOctaves="3" seed="8442" result="t"/><feColorMatrix in="t" type="saturate" values="0"/></filter></defs><rect width="1000" height="1250" fill="url(#g)"/><path d="M0 79.15 Q 375.62 644.47 1000 4.15 L 1000 911.99 Q 546.73 1307.72 0 828.71 Z" fill="#D2C3AC" opacity="0.11"/><path d="M0 -1.7 Q 660.85 598.69 1000 -76.7 L 1000 1066.26 Q 351.37 1486.52 0 959.46 Z" fill="#D2C3AC" opacity="0.1"/><path d="M0 -51.85 Q 390.7 374.18 1000 -126.85 L 1000 1239.55 Q 442.48 1537.77 0 1110.41 Z" fill="#D2C3AC" opacity="0.11"/><path d="M-50 894.94 Q 649.72 737.2 1050 958.04" fill="none" stroke="#A9884E" stroke-width="1.38" opacity="0.27"/><path d="M-50 1182.12 Q 425.06 1057.03 1050 1232.16" fill="none" stroke="#D2C3AC" stroke-width="1.15" opacity="0.33"/><path d="M-50 98.15 Q 461.4 -170.43 1050 205.58" fill="none" stroke="#D2C3AC" stroke-width="0.95" opacity="0.2"/><path d="M-50 832.56 Q 628 688.86 1050 890.04" fill="none" stroke="#A9884E" stroke-width="1.04" opacity="0.34"/><path d="M-50 702.87 Q 430.54 521.15 1050 775.55" fill="none" stroke="#D2C3AC" stroke-width="1.36" opacity="0.33"/><path d="M-50 679.52 Q 423.72 405.1 1050 789.29" fill="none" stroke="#D2C3AC" stroke-width="0.93" opacity="0.19"/><path d="M-50 407.68 Q 602.06 271.65 1050 462.09" fill="none" stroke="#A9884E" stroke-width="0.69" opacity="0.2"/><rect width="1000" height="1250" filter="url(#n)" opacity="0.055" style="mix-blend-mode:multiply"/></svg>